<?xml version="1.0" encoding="utf-8"?>
<!-- Generator: Adobe Illustrator 24.3.0, SVG Export Plug-In . SVG Version: 6.00 Build 0)  -->
<svg version="1.1" id="Laag_1" xmlns="http://www.w3.org/2000/svg" xmlns:xlink="http://www.w3.org/1999/xlink" x="0px" y="0px"
	 viewBox="0 0 122.8 31.5" style="enable-background:new 0 0 122.8 31.5;" xml:space="preserve">
<g id="_x23_000000ff">
	<path d="M87.8,8.2c0.3,0,0.8-0.2,1,0.1c0,2.4,0,4.8,0,7.2c0.1,1.6,0.5,3.4,1.8,4.5c1.3,1.2,3.2,1.6,4.9,1.4
		c0.8-0.1,1.5-0.3,2.3-0.6c0,0,0.1,0.1,0.2,0.1C97,22.3,95.5,23,94,23.2c-1.6,0.2-3.4,0-4.8-0.8c-1-0.6-1.8-1.6-2.2-2.8
		c-0.4-1.2-0.5-2.4-0.5-3.6c0-2,0-4,0-6C86.6,9.2,87,8.4,87.8,8.2z"/>
	<path d="M96.8,8.3c0.4-0.1,0.8-0.1,1.1,0.1c0,2.3,0,4.6,0,7c0,0.8-0.2,1.7-0.6,2.4c-0.4,0.6-1,1-1.7,1.2c-0.1,0-0.2,0-0.3-0.1
		c0.3-0.7,0.4-1.4,0.4-2.2c0-2.2,0-4.5,0-6.7C95.7,9.2,96.1,8.5,96.8,8.3z"/>
	<path d="M28.6,8.8c0.4-0.4,0.9-0.5,1.5-0.5c0.2,0.1,0.1,0.3,0.1,0.5c0,3.7,0,7.3,0,11c0,0.4,0.1,0.9,0.4,1.2
		c0.3,0.4,0.9,0.5,1.4,0.5c2.4,0,4.7,0,7.1,0c0.2,0.5,0,1-0.3,1.4c-0.3,0.3-0.8,0.5-1.2,0.5c-2.5,0-5.1,0-7.6,0
		c-0.6,0-1.1-0.2-1.5-0.6c-0.3-0.4-0.5-0.9-0.5-1.4c0-3.7,0-7.3,0-11C28,9.7,28.2,9.1,28.6,8.8z"/>
	<path d="M50.8,8.4c0.3-0.1,0.8-0.2,1,0.1c0,3.8,0,7.7,0,11.5c0,0.4,0.1,0.9,0.5,1.2c0.2,0.2,0.4,0.3,0.7,0.4c0.1,0.7-0.3,1.5-1,1.7
		c-0.6,0.2-1.4,0.1-1.9-0.4c-0.4-0.4-0.5-1-0.5-1.5c0-3.7,0-7.5,0-11.2C49.7,9.3,50.1,8.5,50.8,8.4z"/>
	<path d="M60.2,8.4c0.4-0.2,0.8-0.2,1.2-0.1c0.1,0.4,0,0.8,0,1.3c0,2.1,0,4.1,0,6.2c0,0.4,0,0.8-0.1,1.2c-0.3-0.2-0.5-0.6-0.7-0.9
		c-0.5-0.8-1-1.6-1.5-2.5c0-1.2,0-2.5,0-3.7C59.2,9.4,59.6,8.7,60.2,8.4z"/>
	<path d="M74.1,8.4c0.4-0.1,0.8-0.2,1.2,0c0,3.8,0,7.7,0,11.5c0,0.4,0.1,0.8,0.4,1.1c0.2,0.2,0.5,0.3,0.7,0.4c0,0.7-0.4,1.5-1,1.7
		c-0.6,0.2-1.3,0.1-1.8-0.3c-0.3-0.3-0.5-0.8-0.5-1.3c0-3.9,0-7.7,0-11.6C73.1,9.3,73.5,8.6,74.1,8.4z"/>
	<path d="M110.3,8.7c0.1-0.1,0.3-0.1,0.4,0c-0.8,1.1-1,2.6-0.5,3.8c0.4,1,1.2,1.7,2.2,2.1c1.3,0.6,2.7,0.7,4.1,1
		c0.6,0.2,1.3,0.4,1.6,1c0.2,0.5,0.1,1.2-0.3,1.6c-0.4,0.4-1.1,0.6-1.7,0.7c-0.1-0.4-0.2-0.8-0.6-1c-0.7-0.5-1.7-0.5-2.5-0.7
		c-1.5-0.2-3-0.7-4.1-1.8c-1.2-1.2-1.5-3.3-0.6-4.8C108.7,9.8,109.4,9.1,110.3,8.7z"/>
	<path d="M13.3,9.2c1.5-0.3,3.2,0.2,4.2,1.4c0,0.6,0,1.2,0,1.8c0,0-0.1,0.1-0.1,0.1c-0.6,0-1.2,0-1.7,0c-1.2-1.3-3.2-1.7-4.8-1.2
		c-0.2,0.1-0.3,0-0.4-0.1C11,10.2,12.1,9.5,13.3,9.2z"/>
	<path d="M114.5,9.2c1.2-0.1,2.4,0.2,3.3,0.9c0.2,0.2,0.6,0.3,0.8,0.5c0.1,1-0.9,1.9-1.8,1.8c-0.7-0.1-1.1-0.6-1.7-0.9
		c-0.6-0.3-1.2-0.4-1.9-0.4c-0.2,0-0.4,0.1-0.5-0.1c-0.1-0.4,0.1-0.8,0.3-1.1C113.4,9.4,114,9.2,114.5,9.2z"/>
	<path d="M33.1,9.6c1.9,0,3.7,0,5.6,0c0.2,0,0.4,0,0.5,0.1c0.2,0.9-0.6,1.7-1.4,1.7c-1.4,0.1-2.9,0-4.3,0c-0.2,0-0.4,0.1-0.5-0.1
		c0-0.5,0-1.1,0-1.6C33,9.7,33.1,9.6,33.1,9.6z"/>
	<path d="M6.9,10.7c0,0,0.1,0.1,0.2,0.2c-0.6,1.5-0.7,3.2-0.3,4.8c0.4,1.7,1.4,3.3,2.8,4.3c1.7,1.3,3.9,1.9,6,1.5
		c0.6-0.1,1.1-0.3,1.7-0.4c0.1,0,0.2,0.1,0.2,0.1C16,22.6,14,23.4,12,23.3c-1.7,0-3.4-0.7-4.7-1.8c-1.4-1.2-2.3-2.9-2.5-4.7
		C4.5,14.5,5.3,12.2,6.9,10.7z"/>
	<path d="M54.6,11.7c0.1,0,0.2-0.1,0.2-0.2c1.8,2.9,3.5,5.8,5.3,8.7c0.4,0.7,1,1.3,1.8,1.2c0.2,0,0.5-0.1,0.6,0.1
		c-0.1,0.6-0.5,1.1-1,1.4c-0.6,0.4-1.4,0.4-2.1,0.2c-0.7-0.2-1.2-0.7-1.5-1.3c-1.1-1.8-2.1-3.5-3.2-5.3c-0.1-0.1-0.1-0.3-0.1-0.4
		C54.6,14.7,54.6,13.2,54.6,11.7z"/>
	<path d="M12.6,14.8c0.3-0.4,0.8-0.6,1.2-0.6c0.1,0.3,0.2,0.7,0.4,1c0.3,0.4,0.7,0.7,1.2,0.7c0.6,0,1.2,0,1.8,0
		c0.1,0,0.3,0.1,0.2,0.2c0,0.4,0,0.9,0,1.3c-0.6,0.5-1.3,0.8-2.1,1c-0.2-0.2,0-0.6-0.3-0.8c-0.8-0.1-1.6,0.2-2.3-0.4
		C12.1,16.7,12,15.5,12.6,14.8z"/>
	<path d="M33,15.6c2,0,3.9,0,5.9,0c0,0.4,0,0.9-0.3,1.2c-0.3,0.4-0.9,0.6-1.4,0.6c-1.3,0-2.7,0-4,0c0,0-0.1-0.1-0.1-0.1
		C32.9,16.7,33,16.1,33,15.6z"/>
	<path d="M107.5,20.7c-0.4-1.1,0.7-2.5,1.9-2.2c0.2,0,0.2,0.3,0.3,0.5c0.1,0.3,0.2,0.5,0.4,0.7c2.3,1.9,5.7,2.3,8.4,1.1
		c0,0,0.1,0.1,0.2,0.2c-0.7,1.1-1.9,1.7-3.1,2.1c-2.2,0.6-4.7,0.3-6.7-0.9C108.4,21.7,107.7,21.4,107.5,20.7z"/>
</g>
</svg>
